<svg width="12" height="12" viewBox="0 0 12 12" fill="none" xmlns="http://www.w3.org/2000/svg">
<path d="M0.638747 2.25023C0.248223 1.8597 0.248223 1.22654 0.638747 0.836013C1.02927 0.445489 1.66244 0.445489 2.05296 0.836013L11.2453 10.0284C11.6359 10.4189 11.6359 11.0521 11.2453 11.4426C10.8548 11.8331 10.2217 11.8331 9.83114 11.4426L0.638747 2.25023Z" fill="#828282"/>
<path d="M10.2245 0.836164C10.6151 0.44564 11.2482 0.44564 11.6387 0.836164C12.0293 1.22669 12.0293 1.85985 11.6387 2.25038L2.44636 11.4428C2.05583 11.8333 1.42267 11.8333 1.03215 11.4428C0.641621 11.0522 0.641621 10.4191 1.03215 10.0286L10.2245 0.836164Z" fill="#828282"/>
</svg>
